<mxfile host="app.diagrams.net" modified="2023-08-23T09:50:42.546Z" agent="Mozilla/5.0 (Windows NT 10.0; Win64; x64) AppleWebKit/537.36 (KHTML, like Gecko) Chrome/116.0.0.0 Safari/537.36" etag="54DbE63K1B1Z4MWvZbUD" version="21.6.9" type="github">
  <diagram name="Page-1" id="ZcAi-F6WAGjGsejNGE3I">
    <mxGraphModel dx="1434" dy="782" grid="1" gridSize="10" guides="1" tooltips="1" connect="1" arrows="1" fold="1" page="1" pageScale="1" pageWidth="827" pageHeight="1169" math="0" shadow="0">
      <root>
        <mxCell id="0" />
        <mxCell id="1" parent="0" />
        <mxCell id="V6Q1L1hzU08xL4f6sb9S-3" value="" style="rounded=0;orthogonalLoop=1;jettySize=auto;html=1;" edge="1" parent="1" source="V6Q1L1hzU08xL4f6sb9S-1" target="V6Q1L1hzU08xL4f6sb9S-2">
          <mxGeometry relative="1" as="geometry" />
        </mxCell>
        <mxCell id="V6Q1L1hzU08xL4f6sb9S-1" value="" style="rounded=0;whiteSpace=wrap;html=1;" vertex="1" parent="1">
          <mxGeometry x="560" y="200" width="120" height="60" as="geometry" />
        </mxCell>
        <mxCell id="V6Q1L1hzU08xL4f6sb9S-2" value="" style="rounded=0;whiteSpace=wrap;html=1;" vertex="1" parent="1">
          <mxGeometry x="230" y="200" width="120" height="60" as="geometry" />
        </mxCell>
      </root>
    </mxGraphModel>
  </diagram>
</mxfile>
